G75*
%MOIN*%
%OFA0B0*%
%FSLAX24Y24*%
%IPPOS*%
%LPD*%
%AMOC8*
5,1,8,0,0,1.08239X$1,22.5*
%
%ADD10C,0.0000*%
%ADD11R,0.0434X0.0473*%
%ADD12R,0.0473X0.0434*%
%ADD13C,0.0780*%
%ADD14R,0.0500X0.0670*%
%ADD15R,0.0060X0.0720*%
%ADD16R,0.0355X0.0631*%
%ADD17R,0.0611X0.0827*%
%ADD18C,0.0375*%
D10*
X002071Y000400D02*
X002071Y027770D01*
X014063Y027770D01*
X014063Y000400D01*
X002071Y000400D01*
X007156Y001846D02*
X007158Y001871D01*
X007164Y001896D01*
X007173Y001920D01*
X007186Y001942D01*
X007203Y001962D01*
X007222Y001979D01*
X007243Y001993D01*
X007267Y002003D01*
X007291Y002010D01*
X007317Y002013D01*
X007342Y002012D01*
X007367Y002007D01*
X007391Y001998D01*
X007414Y001986D01*
X007434Y001971D01*
X007452Y001952D01*
X007467Y001931D01*
X007478Y001908D01*
X007486Y001884D01*
X007490Y001859D01*
X007490Y001833D01*
X007486Y001808D01*
X007478Y001784D01*
X007467Y001761D01*
X007452Y001740D01*
X007434Y001721D01*
X007414Y001706D01*
X007391Y001694D01*
X007367Y001685D01*
X007342Y001680D01*
X007317Y001679D01*
X007291Y001682D01*
X007267Y001689D01*
X007243Y001699D01*
X007222Y001713D01*
X007203Y001730D01*
X007186Y001750D01*
X007173Y001772D01*
X007164Y001796D01*
X007158Y001821D01*
X007156Y001846D01*
X008652Y001846D02*
X008654Y001871D01*
X008660Y001896D01*
X008669Y001920D01*
X008682Y001942D01*
X008699Y001962D01*
X008718Y001979D01*
X008739Y001993D01*
X008763Y002003D01*
X008787Y002010D01*
X008813Y002013D01*
X008838Y002012D01*
X008863Y002007D01*
X008887Y001998D01*
X008910Y001986D01*
X008930Y001971D01*
X008948Y001952D01*
X008963Y001931D01*
X008974Y001908D01*
X008982Y001884D01*
X008986Y001859D01*
X008986Y001833D01*
X008982Y001808D01*
X008974Y001784D01*
X008963Y001761D01*
X008948Y001740D01*
X008930Y001721D01*
X008910Y001706D01*
X008887Y001694D01*
X008863Y001685D01*
X008838Y001680D01*
X008813Y001679D01*
X008787Y001682D01*
X008763Y001689D01*
X008739Y001699D01*
X008718Y001713D01*
X008699Y001730D01*
X008682Y001750D01*
X008669Y001772D01*
X008660Y001796D01*
X008654Y001821D01*
X008652Y001846D01*
D11*
X008321Y016065D03*
X008321Y016735D03*
X009571Y016735D03*
X009571Y016065D03*
X007071Y016065D03*
X007071Y016735D03*
D12*
X007986Y019900D03*
X008655Y019900D03*
D13*
X013571Y019900D03*
X013571Y020900D03*
X013571Y021900D03*
X013571Y022900D03*
X013571Y023900D03*
X013571Y024900D03*
X013571Y018900D03*
X013571Y017900D03*
X013571Y016900D03*
X013571Y015900D03*
X013571Y014900D03*
X013571Y013900D03*
X013571Y012900D03*
X013571Y011900D03*
X013571Y010900D03*
X013571Y009900D03*
X013571Y008900D03*
X013571Y007900D03*
X013571Y006900D03*
X002571Y006900D03*
X002571Y007900D03*
X002571Y008900D03*
X002571Y009900D03*
X002571Y010900D03*
X002571Y011900D03*
X002571Y012900D03*
X002571Y013900D03*
X002571Y014900D03*
X002571Y015900D03*
X002571Y016900D03*
X002571Y017900D03*
X002571Y018900D03*
X002571Y019900D03*
X002571Y020900D03*
X002571Y021900D03*
X002571Y022900D03*
X002571Y023900D03*
X002571Y024900D03*
D14*
X011271Y003500D03*
X011871Y003500D03*
D15*
X011571Y003500D03*
D16*
X009452Y010250D03*
X009019Y010250D03*
X008586Y010250D03*
X008153Y010250D03*
X007720Y010250D03*
X007287Y010250D03*
X006854Y010250D03*
X006421Y010250D03*
D17*
X005456Y011274D03*
X005456Y008006D03*
X010869Y008006D03*
X010869Y011274D03*
D18*
X008819Y001846D03*
X007323Y001846D03*
M02*
