G75*
%MOIN*%
%OFA0B0*%
%FSLAX24Y24*%
%IPPOS*%
%LPD*%
%AMOC8*
5,1,8,0,0,1.08239X$1,22.5*
%
%ADD10C,0.0000*%
%ADD11R,0.0631X0.0552*%
%ADD12R,0.0473X0.0434*%
%ADD13R,0.0552X0.0631*%
%ADD14R,0.0257X0.0512*%
%ADD15R,0.0591X0.0591*%
%ADD16R,0.1851X0.0434*%
%ADD17R,0.1379X0.0670*%
%ADD18R,0.0434X0.0473*%
%ADD19R,0.0512X0.0512*%
%ADD20R,0.0236X0.0118*%
%ADD21R,0.0197X0.0197*%
%ADD22R,0.0490X0.0440*%
%ADD23R,0.0709X0.0394*%
%ADD24R,0.1812X0.1812*%
%ADD25C,0.0780*%
%ADD26R,0.0946X0.0670*%
%ADD27R,0.0197X0.0591*%
%ADD28C,0.0375*%
%ADD29R,0.0788X0.0788*%
D10*
X002071Y000400D02*
X002071Y027770D01*
X014063Y027770D01*
X014063Y000400D01*
X002071Y000400D01*
X007156Y001846D02*
X007158Y001871D01*
X007164Y001896D01*
X007173Y001920D01*
X007186Y001942D01*
X007203Y001962D01*
X007222Y001979D01*
X007243Y001993D01*
X007267Y002003D01*
X007291Y002010D01*
X007317Y002013D01*
X007342Y002012D01*
X007367Y002007D01*
X007391Y001998D01*
X007414Y001986D01*
X007434Y001971D01*
X007452Y001952D01*
X007467Y001931D01*
X007478Y001908D01*
X007486Y001884D01*
X007490Y001859D01*
X007490Y001833D01*
X007486Y001808D01*
X007478Y001784D01*
X007467Y001761D01*
X007452Y001740D01*
X007434Y001721D01*
X007414Y001706D01*
X007391Y001694D01*
X007367Y001685D01*
X007342Y001680D01*
X007317Y001679D01*
X007291Y001682D01*
X007267Y001689D01*
X007243Y001699D01*
X007222Y001713D01*
X007203Y001730D01*
X007186Y001750D01*
X007173Y001772D01*
X007164Y001796D01*
X007158Y001821D01*
X007156Y001846D01*
X008652Y001846D02*
X008654Y001871D01*
X008660Y001896D01*
X008669Y001920D01*
X008682Y001942D01*
X008699Y001962D01*
X008718Y001979D01*
X008739Y001993D01*
X008763Y002003D01*
X008787Y002010D01*
X008813Y002013D01*
X008838Y002012D01*
X008863Y002007D01*
X008887Y001998D01*
X008910Y001986D01*
X008930Y001971D01*
X008948Y001952D01*
X008963Y001931D01*
X008974Y001908D01*
X008982Y001884D01*
X008986Y001859D01*
X008986Y001833D01*
X008982Y001808D01*
X008974Y001784D01*
X008963Y001761D01*
X008948Y001740D01*
X008930Y001721D01*
X008910Y001706D01*
X008887Y001694D01*
X008863Y001685D01*
X008838Y001680D01*
X008813Y001679D01*
X008787Y001682D01*
X008763Y001689D01*
X008739Y001699D01*
X008718Y001713D01*
X008699Y001730D01*
X008682Y001750D01*
X008669Y001772D01*
X008660Y001796D01*
X008654Y001821D01*
X008652Y001846D01*
D11*
X005571Y007026D03*
X005571Y007774D03*
X004321Y003274D03*
X004321Y002526D03*
X011821Y007026D03*
X011821Y007774D03*
D12*
X012155Y008900D03*
X011486Y008900D03*
X011486Y009950D03*
X012155Y009950D03*
X011705Y013100D03*
X011036Y013100D03*
X005355Y013050D03*
X004686Y013050D03*
X004486Y010650D03*
X005155Y010650D03*
X011486Y002500D03*
X012155Y002500D03*
X012886Y002500D03*
X013555Y002500D03*
D13*
X007195Y008650D03*
X006447Y008650D03*
X010897Y014650D03*
X011645Y014650D03*
D14*
X010945Y007912D03*
X010197Y007912D03*
X010197Y006888D03*
X010571Y006888D03*
X010945Y006888D03*
X007195Y006888D03*
X006821Y006888D03*
X006447Y006888D03*
X006447Y007912D03*
X007195Y007912D03*
D15*
X009571Y005378D03*
X009571Y003922D03*
D16*
X011164Y004156D03*
X011164Y004944D03*
D17*
X013211Y005889D03*
X013211Y003211D03*
D18*
X010171Y011565D03*
X010171Y012235D03*
X009371Y012235D03*
X009371Y011565D03*
X008571Y011565D03*
X008571Y012235D03*
X007771Y012235D03*
X007771Y011565D03*
X006971Y011565D03*
X006971Y012235D03*
X006171Y012235D03*
X006171Y011565D03*
X007821Y007735D03*
X007821Y007065D03*
X005321Y003235D03*
X005321Y002565D03*
X004321Y004315D03*
X004321Y004985D03*
X003321Y004985D03*
X003321Y004315D03*
X003321Y003235D03*
X003321Y002565D03*
D19*
X006271Y014087D03*
X006271Y014913D03*
X007521Y014913D03*
X007521Y014087D03*
X008771Y014087D03*
X008771Y014913D03*
X010021Y014913D03*
X010021Y014087D03*
D20*
G36*
X007468Y005667D02*
X007634Y005833D01*
X007718Y005749D01*
X007552Y005583D01*
X007468Y005667D01*
G37*
G36*
X007608Y005528D02*
X007774Y005694D01*
X007858Y005610D01*
X007692Y005444D01*
X007608Y005528D01*
G37*
G36*
X007747Y005388D02*
X007913Y005554D01*
X007997Y005470D01*
X007831Y005304D01*
X007747Y005388D01*
G37*
G36*
X007399Y005401D02*
X007565Y005235D01*
X007481Y005151D01*
X007315Y005317D01*
X007399Y005401D01*
G37*
G36*
X007260Y005262D02*
X007426Y005096D01*
X007342Y005012D01*
X007176Y005178D01*
X007260Y005262D01*
G37*
G36*
X007121Y005123D02*
X007287Y004957D01*
X007203Y004873D01*
X007037Y005039D01*
X007121Y005123D01*
G37*
G36*
X006982Y004984D02*
X007148Y004818D01*
X007064Y004734D01*
X006898Y004900D01*
X006982Y004984D01*
G37*
G36*
X006842Y004845D02*
X007008Y004679D01*
X006924Y004595D01*
X006758Y004761D01*
X006842Y004845D01*
G37*
G36*
X006703Y004705D02*
X006869Y004539D01*
X006785Y004455D01*
X006619Y004621D01*
X006703Y004705D01*
G37*
G36*
X006493Y004887D02*
X006327Y005053D01*
X006411Y005137D01*
X006577Y004971D01*
X006493Y004887D01*
G37*
G36*
X006354Y004748D02*
X006188Y004914D01*
X006272Y004998D01*
X006438Y004832D01*
X006354Y004748D01*
G37*
G36*
X006632Y005026D02*
X006466Y005192D01*
X006550Y005276D01*
X006716Y005110D01*
X006632Y005026D01*
G37*
G36*
X006771Y005165D02*
X006605Y005331D01*
X006689Y005415D01*
X006855Y005249D01*
X006771Y005165D01*
G37*
G36*
X006911Y005304D02*
X006745Y005470D01*
X006829Y005554D01*
X006995Y005388D01*
X006911Y005304D01*
G37*
G36*
X007050Y005444D02*
X006884Y005610D01*
X006968Y005694D01*
X007134Y005528D01*
X007050Y005444D01*
G37*
G36*
X007189Y005583D02*
X007023Y005749D01*
X007107Y005833D01*
X007273Y005667D01*
X007189Y005583D01*
G37*
G36*
X007678Y005123D02*
X007844Y004957D01*
X007760Y004873D01*
X007594Y005039D01*
X007678Y005123D01*
G37*
G36*
X007538Y004984D02*
X007704Y004818D01*
X007620Y004734D01*
X007454Y004900D01*
X007538Y004984D01*
G37*
G36*
X007399Y004845D02*
X007565Y004679D01*
X007481Y004595D01*
X007315Y004761D01*
X007399Y004845D01*
G37*
G36*
X007260Y004705D02*
X007426Y004539D01*
X007342Y004455D01*
X007176Y004621D01*
X007260Y004705D01*
G37*
G36*
X007121Y004566D02*
X007287Y004400D01*
X007203Y004316D01*
X007037Y004482D01*
X007121Y004566D01*
G37*
G36*
X006982Y004427D02*
X007148Y004261D01*
X007064Y004177D01*
X006898Y004343D01*
X006982Y004427D01*
G37*
G36*
X006855Y004051D02*
X006689Y003885D01*
X006605Y003969D01*
X006771Y004135D01*
X006855Y004051D01*
G37*
G36*
X006995Y003912D02*
X006829Y003746D01*
X006745Y003830D01*
X006911Y003996D01*
X006995Y003912D01*
G37*
G36*
X007134Y003772D02*
X006968Y003606D01*
X006884Y003690D01*
X007050Y003856D01*
X007134Y003772D01*
G37*
G36*
X007273Y003633D02*
X007107Y003467D01*
X007023Y003551D01*
X007189Y003717D01*
X007273Y003633D01*
G37*
G36*
X007260Y004149D02*
X007426Y003983D01*
X007342Y003899D01*
X007176Y004065D01*
X007260Y004149D01*
G37*
G36*
X007399Y004288D02*
X007565Y004122D01*
X007481Y004038D01*
X007315Y004204D01*
X007399Y004288D01*
G37*
G36*
X007538Y004427D02*
X007704Y004261D01*
X007620Y004177D01*
X007454Y004343D01*
X007538Y004427D01*
G37*
G36*
X007678Y004566D02*
X007844Y004400D01*
X007760Y004316D01*
X007594Y004482D01*
X007678Y004566D01*
G37*
G36*
X007817Y004705D02*
X007983Y004539D01*
X007899Y004455D01*
X007733Y004621D01*
X007817Y004705D01*
G37*
G36*
X007956Y004845D02*
X008122Y004679D01*
X008038Y004595D01*
X007872Y004761D01*
X007956Y004845D01*
G37*
G36*
X008025Y005110D02*
X008191Y005276D01*
X008275Y005192D01*
X008109Y005026D01*
X008025Y005110D01*
G37*
G36*
X007886Y005249D02*
X008052Y005415D01*
X008136Y005331D01*
X007970Y005165D01*
X007886Y005249D01*
G37*
G36*
X008164Y004971D02*
X008330Y005137D01*
X008414Y005053D01*
X008248Y004887D01*
X008164Y004971D01*
G37*
G36*
X008303Y004832D02*
X008469Y004998D01*
X008553Y004914D01*
X008387Y004748D01*
X008303Y004832D01*
G37*
G36*
X008387Y004552D02*
X008553Y004386D01*
X008469Y004302D01*
X008303Y004468D01*
X008387Y004552D01*
G37*
G36*
X008248Y004413D02*
X008414Y004247D01*
X008330Y004163D01*
X008164Y004329D01*
X008248Y004413D01*
G37*
G36*
X008109Y004274D02*
X008275Y004108D01*
X008191Y004024D01*
X008025Y004190D01*
X008109Y004274D01*
G37*
G36*
X007970Y004135D02*
X008136Y003969D01*
X008052Y003885D01*
X007886Y004051D01*
X007970Y004135D01*
G37*
G36*
X007831Y003996D02*
X007997Y003830D01*
X007913Y003746D01*
X007747Y003912D01*
X007831Y003996D01*
G37*
G36*
X007692Y003856D02*
X007858Y003690D01*
X007774Y003606D01*
X007608Y003772D01*
X007692Y003856D01*
G37*
G36*
X007552Y003717D02*
X007718Y003551D01*
X007634Y003467D01*
X007468Y003633D01*
X007552Y003717D01*
G37*
G36*
X006716Y004190D02*
X006550Y004024D01*
X006466Y004108D01*
X006632Y004274D01*
X006716Y004190D01*
G37*
G36*
X006577Y004329D02*
X006411Y004163D01*
X006327Y004247D01*
X006493Y004413D01*
X006577Y004329D01*
G37*
G36*
X006438Y004468D02*
X006272Y004302D01*
X006188Y004386D01*
X006354Y004552D01*
X006438Y004468D01*
G37*
D21*
G36*
X007371Y003617D02*
X007509Y003479D01*
X007371Y003341D01*
X007233Y003479D01*
X007371Y003617D01*
G37*
D22*
X004671Y011550D03*
X004671Y012250D03*
X005471Y011900D03*
X010921Y011900D03*
X011721Y011550D03*
X011721Y012250D03*
D23*
X011657Y015900D03*
X011657Y016400D03*
X011657Y016900D03*
X011657Y017400D03*
X011657Y017900D03*
X011657Y018400D03*
X011657Y018900D03*
X011657Y019400D03*
X011657Y019900D03*
X011657Y020400D03*
X011657Y020900D03*
X011657Y021400D03*
X011657Y021900D03*
X011657Y022400D03*
X011657Y022900D03*
X011657Y023400D03*
X011657Y023900D03*
X011657Y024400D03*
X011657Y024900D03*
X004571Y024900D03*
X004571Y024400D03*
X004571Y023900D03*
X004571Y023400D03*
X004571Y022900D03*
X004571Y022400D03*
X004571Y021900D03*
X004571Y021400D03*
X004571Y020900D03*
X004571Y020400D03*
X004571Y019900D03*
X004571Y019400D03*
X004571Y018900D03*
X004571Y018400D03*
X004571Y017900D03*
X004571Y017400D03*
X004571Y016900D03*
X004571Y016400D03*
X004571Y015900D03*
D24*
X007571Y021833D03*
D25*
X002571Y021900D03*
X002571Y020900D03*
X002571Y019900D03*
X002571Y018900D03*
X002571Y017900D03*
X002571Y016900D03*
X002571Y015900D03*
X002571Y014900D03*
X002571Y013900D03*
X002571Y012900D03*
X002571Y011900D03*
X002571Y010900D03*
X002571Y009900D03*
X002571Y008900D03*
X002571Y007900D03*
X002571Y006900D03*
X002571Y022900D03*
X002571Y023900D03*
X002571Y024900D03*
X013571Y024900D03*
X013571Y023900D03*
X013571Y022900D03*
X013571Y021900D03*
X013571Y020900D03*
X013571Y019900D03*
X013571Y018900D03*
X013571Y017900D03*
X013571Y016900D03*
X013571Y015900D03*
X013571Y014900D03*
X013571Y013900D03*
X013571Y012900D03*
X013571Y011900D03*
X013571Y010900D03*
X013571Y009900D03*
X013571Y008900D03*
X013571Y007900D03*
X013571Y006900D03*
D26*
X013290Y001400D03*
X010652Y001400D03*
X005490Y001400D03*
X002852Y001400D03*
D27*
X007559Y002063D03*
X007815Y002063D03*
X008071Y002063D03*
X008327Y002063D03*
X008582Y002063D03*
D28*
X008819Y001846D03*
X007323Y001846D03*
D29*
X006496Y001000D03*
X009645Y001000D03*
M02*
