%
M48
M72
T01C0.0120
T02C0.0335
T03C0.0400
%
T01
X4821Y3800
X5521Y5300
X6171Y4650
X6771Y3500
X7571Y2850
X8521Y4050
X8571Y4650
X8671Y5100
X9021Y4800
X9371Y5950
X9171Y6950
X9371Y7200
X9671Y7300
X8921Y7650
X8571Y7000
X8671Y6700
X8221Y6650
X8321Y8550
X8771Y9000
X8621Y9700
X9021Y9750
X9121Y10750
X9621Y10750
X9771Y9750
X10371Y9700
X10371Y10000
X10821Y9350
X11021Y10650
X11421Y10950
X12121Y10700
X12271Y10400
X12421Y9550
X11871Y9550
X12921Y10700
X12121Y11950
X11771Y13500
X11421Y13500
X11321Y13900
X10821Y14150
X10221Y13650
X9871Y13350
X10421Y12800
X10721Y12650
X10771Y12350
X11871Y14050
X12571Y13950
X12571Y13500
X12571Y14550
X12321Y15400
X11671Y15350
X11121Y17300
X11121Y18650
X10871Y18850
X10871Y19200
X12221Y19750
X12421Y19350
X12271Y20100
X12571Y20500
X13071Y21300
X12271Y21400
X12271Y22450
X12571Y22850
X11121Y24400
X10821Y23800
X9071Y20000
X8221Y18100
X8221Y17800
X7921Y16900
X7471Y16750
X7471Y17350
X6521Y16750
X7071Y15650
X8171Y14100
X7521Y13550
X7721Y12650
X7071Y12650
X6921Y12950
X6171Y11150
X6371Y10750
X6921Y10750
X6771Y9700
X6921Y9250
X7771Y9700
X7771Y10750
X8171Y10750
X8571Y10750
X8921Y11900
X9421Y14500
X9571Y15650
X9121Y16050
X8321Y15650
X6121Y18350
X5671Y17600
X5421Y16900
X4071Y13700
X4221Y12900
X4221Y12250
X3621Y12200
X3571Y12550
X3371Y13250
X3071Y12450
X3321Y11900
X3571Y11400
X4271Y11150
X4821Y11150
X5471Y10250
X5721Y10650
X5871Y9350
X5121Y9350
X4821Y7700
X4771Y7250
X5071Y6950
X6071Y7650
X6321Y6150
X8571Y2850
X10321Y2300
X11271Y4550
X11871Y3000
X11371Y6500
X10821Y7350
X10421Y7350
X13071Y15350
X13121Y16400
X12271Y17650
X12271Y18450
X13071Y19300
X6121Y21850
X3471Y24700
X5271Y13450
X5421Y12650
T02
X7323Y1846
X8819Y1846
T03
X2571Y6900
X2571Y7900
X2571Y8900
X2571Y9900
X2571Y10900
X2571Y11900
X2571Y12900
X2571Y13900
X2571Y14900
X2571Y15900
X2571Y16900
X2571Y17900
X2571Y18900
X2571Y19900
X2571Y20900
X2571Y21900
X2571Y22900
X2571Y23900
X2571Y24900
X13571Y24900
X13571Y23900
X13571Y22900
X13571Y21900
X13571Y20900
X13571Y19900
X13571Y18900
X13571Y17900
X13571Y16900
X13571Y15900
X13571Y14900
X13571Y13900
X13571Y12900
X13571Y11900
X13571Y10900
X13571Y9900
X13571Y8900
X13571Y7900
X13571Y6900
M30
